HIERARCHY
ROOT Hips
{
  OFFSET -33.9132 29.2015 117.021
  CHANNELS 6 Xposition Yposition Zposition Zrotation Xrotation Yrotation
  JOINT LeftUpLeg
  {
    OFFSET 8.64259 1.95398 -2.38835
    CHANNELS 3 Zrotation Xrotation Yrotation
    JOINT LeftLeg
    {
      OFFSET 43.7702 0 0
      CHANNELS 3 Zrotation Xrotation Yrotation
      JOINT LeftFoot
      {
        OFFSET 40.6238 0 0
        CHANNELS 3 Zrotation Xrotation Yrotation
        JOINT LeftToeBase
        {
          OFFSET 12.7242 0 0
          CHANNELS 3 Zrotation Xrotation Yrotation
          End Site
          {
            OFFSET 0 0 0
          }
        }
      }
    }
  }
  JOINT RightUpLeg
  {
    OFFSET -8.2249 1.95398 -2.59336
    CHANNELS 3 Zrotation Xrotation Yrotation
    JOINT RightLeg
    {
      OFFSET 43.5653 0 0
      CHANNELS 3 Zrotation Xrotation Yrotation
      JOINT RightFoot
      {
        OFFSET 40.6238 0 0
        CHANNELS 3 Zrotation Xrotation Yrotation
        JOINT RightToeBase
        {
          OFFSET 12.7242 0 0
          CHANNELS 3 Zrotation Xrotation Yrotation
          End Site
          {
            OFFSET 0 0 0
          }
        }
      }
    }
  }
  JOINT Spine
  {
    OFFSET 0.165834 0.87714 6.61349
    CHANNELS 3 Zrotation Xrotation Yrotation
    JOINT Spine1
    {
      OFFSET 7.38963 1.71661e-005 0
      CHANNELS 3 Zrotation Xrotation Yrotation
      JOINT Spine2
      {
        OFFSET 11.9445 1.14441e-005 0
        CHANNELS 3 Zrotation Xrotation Yrotation
        JOINT Spine3
        {
          OFFSET 14.7254 4.19617e-005 0
          CHANNELS 3 Zrotation Xrotation Yrotation
          JOINT Spine4
          {
            OFFSET 10.9679 0 0
            CHANNELS 3 Zrotation Xrotation Yrotation
            JOINT RightShoulder
            {
              OFFSET 2.46616 -1.6653 3.69651
              CHANNELS 3 Zrotation Xrotation Yrotation
              JOINT RightArm
              {
                OFFSET 13.0012 0 0
                CHANNELS 3 Zrotation Xrotation Yrotation
                JOINT RightForeArm
                {
                  OFFSET 28.7848 1.62311e-005 0
                  CHANNELS 3 Zrotation Xrotation Yrotation
                  JOINT RightHand
                  {
                    OFFSET 26.5688 1.62095e-005 0
                    CHANNELS 3 Zrotation Xrotation Yrotation
                    End Site
                    {
                      OFFSET 0 0 0
                    }
                  }
                }
              }
            }
            JOINT LeftShoulder
            {
              OFFSET 2.38034 -1.29275 -3.7523
              CHANNELS 3 Zrotation Xrotation Yrotation
              JOINT LeftArm
              {
                OFFSET 16.3182 6.07031e-005 0
                CHANNELS 3 Zrotation Xrotation Yrotation
                JOINT LeftForeArm
                {
                  OFFSET 27.0901 0 0
                  CHANNELS 3 Zrotation Xrotation Yrotation
                  JOINT LeftHand
                  {
                    OFFSET 24.5451 1.51738e-005 0
                    CHANNELS 3 Zrotation Xrotation Yrotation
                    End Site
                    {
                      OFFSET 0 0 0
                    }
                  }
                }
              }
            }
            JOINT Neck
            {
              OFFSET 5.0226 -0.0266342 0
              CHANNELS 3 Zrotation Xrotation Yrotation
              JOINT Head
              {
                OFFSET 6.69364 2.86102e-005 0
                CHANNELS 3 Zrotation Xrotation Yrotation
                End Site
                {
                  OFFSET 0 0 0
                }
              }
            }
          }
        }
      }
    }
  }
}
MOTION
Frames:	16
Frame Time:	0.0416667
25.8253 101.055 22.2734 -142.859 -82.1601 -143.838 -174.633 -1.97486 88.1238 -13.3313 -1.16172 -0.254845 70.5218 6.04139 -2.36102 15.0358 -10.8557 7.02115 173.192 -1.56437 88.3138 -13.5889 -9.05008 -0.611968 67.3583 -4.49628 1.30878 23.7141 0.898101 4.86847 0.468886 7.42768 -89.9921 12.0248 0.935991 -0.0863558 0.354152 0.93128 -0.127471 -22.1836 0.918667 0.198964 -2.17099 0.918667 0.198964 92.1045 -27.2042 -103.504 53.5914 2.50809 -7.05428 -5.67246 -47.042 -5.68415 -15.5728 1.59575 -17.4118 -87.7579 -49.4001 81.9805 -23.287 -5.23542 -16.4816 -13.0103 30.1085 -0.0229782 5.56571 -0.418255 -13.7547 0.909987 -0.445136 -1.62996 -2.72892 -0.200885 -3.66693 
25.823 100.988 22.2538 -142.477 -82.0738 -143.425 -174.538 -1.75955 88.1992 -13.8525 -1.23126 -0.31572 70.773 6.04426 -2.35409 15.175 -10.7361 6.96469 173.027 -1.80435 88.197 -12.9527 -9.10605 -0.443395 67.4537 -4.81282 1.32872 23.7379 0.81494 5.11391 0.460518 7.42119 -89.9892 12.032 0.920697 -0.0789319 0.361357 0.916335 -0.119388 -22.1763 0.901849 0.201448 -2.1637 0.901847 0.201438 92.0826 -27.4095 -103.478 53.5508 2.5635 -6.95364 -5.7455 -47.934 -5.73317 -16.6109 1.76046 -17.7632 -87.7795 -49.2183 81.9151 -23.5732 -5.35821 -16.4332 -12.8855 30.6357 -0.0231024 5.25726 -0.383615 -13.8097 0.815709 -0.478366 -1.72249 -2.90929 -0.215863 -3.54261 
25.7952 101.007 22.2946 -142.791 -81.9853 -143.851 -174.553 -2.03521 88.1266 -13.5871 -1.26144 -0.334705 70.7263 5.96464 -2.78789 15.2278 -11.1295 7.64416 172.812 -1.82053 88.0027 -13.1995 -9.45726 -0.332314 67.2732 -4.56549 1.71438 24.2595 0.899971 4.07939 0.428741 7.42537 -89.9708 12.0236 0.866214 -0.0362961 0.352927 0.863783 -0.0743868 -22.1845 0.83707 0.225731 -2.17179 0.837074 0.225734 91.9912 -27.3198 -103.7 53.9224 2.44328 -6.81574 -5.66879 -46.9945 -5.68174 -17.1604 1.64272 -16.5583 -87.6783 -49.2511 82.0741 -23.7742 -5.78302 -16.3645 -12.7007 30.7698 -0.0231346 5.47344 -0.421641 -14.035 0.845593 -0.852312 -2.20074 -2.78665 -0.517194 -3.55765 
25.7099 101.055 22.3507 -142.489 -82.1148 -143.482 -174.505 -2.09896 88.2619 -13.244 -1.2679 -0.334389 70.6427 5.97727 -2.84857 15.1135 -11.1618 7.58475 172.777 -1.59557 88.1217 -13.6105 -9.51268 -0.225254 67.5522 -4.77348 1.12819 23.3847 1.03481 4.86804 0.421808 7.40926 -89.965 12.0558 0.855126 -0.02387 0.385105 0.853246 -0.0614894 -22.1522 0.82276 0.234253 -2.13953 0.822758 0.234247 92.1238 -27.2734 -103.439 54.1138 2.46006 -6.53175 -5.73695 -47.8303 -5.72732 -17.4835 1.66577 -16.4707 -87.8331 -49.3328 81.8546 -23.5604 -5.83214 -16.235 -12.7383 30.5835 -0.02309 5.00068 -0.386027 -14.3031 0.785659 -2.60078 -3.60189 -1.8141 -2.07547 -3.88293 
25.6575 101.035 22.421 -142.305 -82.094 -143.294 -174.46 -2.08702 88.3115 -13.3824 -1.21393 -0.358324 70.7183 6.02329 -2.66207 15.0317 -10.8931 7.07692 172.847 -1.77405 88.2127 -13.4125 -9.35599 -0.268839 67.7099 -4.96627 0.924454 23.0052 1.07809 5.25198 0.431936 7.419 -89.9465 12.0362 0.884054 0.0100812 0.365523 0.883632 -0.0288536 -22.1719 0.840142 0.275325 -2.15923 0.840133 0.27531 92.1269 -27.3496 -103.406 53.6052 2.73317 -6.41924 -5.6837 -47.1808 -5.69162 -16.2294 1.75618 -18.0482 -87.7532 -49.2124 81.9539 -23.115 -4.89703 -16.2207 -13.1564 29.8141 -0.0229102 5.04905 -0.391054 -14.1174 0.679281 -6.43345 -5.65382 -0.945884 -5.60717 -4.70341 
25.6412 100.993 22.4721 -142.641 -82.3086 -143.628 -174.562 -1.76315 88.2527 -13.7655 -1.25987 -0.245478 70.9058 6.05947 -2.6399 15.0714 -10.9345 7.18143 172.979 -1.7647 88.2108 -12.9978 -8.79787 -0.34988 67.3614 -4.69085 1.71088 24.3996 0.611725 4.87516 0.395341 7.40962 -89.9053 12.0545 0.830761 0.0980117 0.383856 0.834261 0.0613477 -22.1531 0.762887 0.34317 -2.1405 0.762892 0.343169 91.7601 -27.6356 -104.068 53.3201 2.86737 -6.40594 -5.64246 -46.6654 -5.66432 -15.842 1.67896 -17.8104 -87.7345 -49.1808 81.9762 -22.9395 -4.90005 -16.0158 -13.2263 29.4292 -0.0228229 5.6268 -0.474488 -14.2811 -0.81716 -12.0453 -9.40791 1.51454 -10.863 -5.33962 
25.6011 100.998 22.5893 -143.799 -82.3643 -144.704 -174.521 -1.88565 88.3774 -13.7552 -1.10604 -0.216727 71.0025 6.10878 -2.89678 15.1617 -10.9305 7.26328 172.908 -1.92983 88.3111 -13.0932 -9.02468 -0.229702 67.4924 -4.82982 1.21553 23.7344 0.936682 4.70798 0.368826 7.43888 -89.9134 11.996 0.774203 0.0886255 0.325331 0.777343 0.0544598 -22.2114 0.711765 0.317218 -2.19878 0.711767 0.317215 91.8444 -26.9581 -104.137 53.907 2.59343 -6.42539 -5.64552 -46.7052 -5.66635 -16.1217 1.68634 -17.6312 -87.6541 -49.5748 82.1685 -22.5308 -4.6627 -15.9727 -13.4353 29.2908 -0.0227919 6.57229 -0.589316 -14.2898 -2.13261 -18.4644 -13.0876 3.08771 -17.0377 -6.71984 
25.5836 101.036 22.6946 -142.369 -82.355 -143.277 -174.578 -2.01379 88.3247 -13.4205 -1.16645 -0.17229 70.9073 6.08694 -2.70779 14.6979 -11.3511 7.48154 172.945 -1.81072 88.3632 -13.3616 -9.06217 -0.265277 67.6169 -4.86538 1.14074 23.3588 0.980516 5.08776 0.375945 7.45989 -89.9034 11.9538 0.793059 0.106842 0.283119 0.796985 0.071822 -22.2537 0.72428 0.340259 -2.24105 0.724272 0.340244 91.9797 -27.1556 -103.783 53.7651 2.55586 -6.70527 -5.69466 -47.3144 -5.69889 -16.1875 1.59286 -16.9038 -87.8349 -48.9087 81.7743 -23.3254 -4.92742 -15.4925 -13.1988 29.2984 -0.0227936 6.93471 -0.593264 -13.7907 -3.73616 -24.1508 -18.4424 4.73793 -22.345 -5.92514 
25.5875 101.004 22.8308 -141.357 -82.7062 -142.165 -174.515 -1.53591 88.443 -13.7452 -0.913679 -0.227514 70.9277 5.98699 -2.38143 14.9726 -10.8801 6.999 173.04 -1.90463 88.4412 -12.4269 -8.76239 -0.22412 67.1835 -4.67508 1.63142 24.1916 0.73754 4.73726 0.311854 7.45865 -89.9675 11.9603 0.63542 -0.00397026 0.28947 0.634637 -0.0319419 -22.2469 0.607236 0.187196 -2.23421 0.60724 0.187197 91.8126 -27.2192 -104.108 53.0375 2.78159 -7.00372 -5.67892 -47.1214 -5.68848 -15.8588 1.6207 -17.364 -87.551 -48.5218 82.1374 -23.9068 -4.63706 -15.6266 -13.2772 29.4118 -0.022819 6.72243 -0.561928 -13.7576 -3.87988 -28.0798 -21.9618 4.50787 -25.8696 -5.08533 
25.5818 101.014 22.9428 -139.458 -82.7038 -140.292 -174.505 -1.65464 88.4201 -13.4094 -1.12589 -0.263661 70.9702 5.94528 -2.51539 14.8338 -10.9835 7.03018 173.126 -1.85902 88.4714 -12.3401 -8.86261 -0.316552 67.3705 -4.84745 1.45375 23.8423 0.795869 5.03551 0.280758 7.45354 -90.0053 11.967 0.55576 -0.0708332 0.296126 0.552103 -0.0952279 -22.24 0.551351 0.0994786 -2.22732 0.551352 0.0994737 91.7657 -26.9071 -104.319 53.1079 2.7492 -7.00398 -5.6823 -47.1624 -5.69071 -16.3363 1.71377 -17.6562 -87.4441 -48.5656 82.3084 -23.9162 -4.7491 -15.3014 -13.1719 29.9627 -0.0229444 7.22152 -0.612668 -13.6465 -2.75018 -30.6674 -23.252 2.60935 -28.0306 -5.17428 
25.6017 101.021 23.0139 -138.715 -82.872 -139.485 -174.494 -1.49082 88.4709 -13.3982 -1.07534 -0.279453 70.8671 5.84236 -2.51667 15.0566 -10.9711 7.22547 173.141 -1.82746 88.5214 -12.1313 -8.78577 -0.264551 67.1017 -4.61881 1.78712 24.1495 0.81893 4.51692 0.285431 7.46033 -90.0367 11.9537 0.550272 -0.132802 0.282911 0.543888 -0.156903 -22.2532 0.564738 0.0387175 -2.24054 0.564739 0.0387162 91.8576 -26.8713 -104.14 53.1375 2.68155 -7.15388 -5.7254 -47.6915 -5.71958 -16.6265 1.66068 -17.0584 -87.3807 -47.9819 82.3022 -23.592 -3.07406 -15.7065 -13.9366 28.3219 -0.0225809 6.58051 -0.511609 -13.1055 -2.32341 -31.846 -25.3557 2.71078 -28.8808 -4.96065 
25.6506 101.012 23.13 -137.844 -83.0312 -138.56 -174.58 -1.4142 88.4335 -13.3284 -1.11546 -0.184018 71.0656 5.92161 -2.62214 14.8032 -11.3324 7.55391 173.221 -1.76592 88.6024 -12.0006 -8.75874 -0.293179 66.9855 -4.57591 1.68791 24.3124 0.743902 4.54054 0.289625 7.44059 -90.0518 11.9931 0.551434 -0.163335 0.322304 0.543705 -0.187451 -22.2138 0.575026 0.00994898 -2.20114 0.57502 0.00994498 91.6322 -26.7949 -104.64 53.0244 2.79127 -6.99323 -5.71018 -47.5057 -5.70935 -16.5455 1.63021 -16.9106 -87.4175 -47.6652 82.1887 -23.7288 -2.67121 -15.9263 -14.0623 27.8556 -0.0224831 7.6727 -0.576946 -12.4248 -2.88587 -32.6238 -27.1354 2.63155 -29.6121 -5.38957 
25.7128 101.014 23.2332 -138.915 -83.3443 -139.769 -174.814 -1.35948 88.1728 -13.1852 -1.01699 -0.0376584 70.8299 5.84256 -2.55693 15.4106 -10.9794 7.58354 172.984 -1.54824 88.3501 -12.2353 -8.82028 -0.148982 67.2185 -4.69381 1.52308 24.252 0.782024 4.49582 0.265982 7.44678 -90.0287 11.9806 0.515347 -0.113162 0.309755 0.509869 -0.135747 -22.2262 0.525528 0.0469496 -2.21357 0.525533 0.0469545 91.6014 -27.1362 -104.579 52.878 2.9758 -6.6641 -5.77268 -48.2583 -5.75161 -18.7525 2.02988 -17.9301 -87.3909 -47.1481 82.1363 -24.3489 -2.74515 -16.4238 -13.9379 28.035 -0.0225204 7.54565 -0.586163 -12.7088 -3.3223 -33.2904 -29.046 3.28506 -30.1856 -4.95813 
25.6045 101.002 23.3367 -138.823 -83.6117 -139.501 -174.432 -0.991954 88.6113 -13.6068 -0.429755 -0.336983 71.0978 6.00536 -2.32739 15.0181 -10.8808 7.04396 173.253 -1.72496 88.7245 -11.6908 -8.38544 -0.215306 67.0491 -4.75525 1.23923 24.1405 0.681999 5.0032 0.242422 7.43049 -90.0748 12.0133 0.446729 -0.1979 0.342432 0.437599 -0.217379 -22.1933 0.485553 -0.0544828 -2.18067 0.48556 -0.0544812 91.6901 -26.7169 -104.548 52.8147 2.76184 -7.34628 -5.73401 -47.7969 -5.72539 -15.7611 1.5992 -17.2966 -87.238 -47.5109 82.4387 -24.129 -2.73686 -16.4306 -13.9322 27.8024 -0.022472 6.84507 -0.576098 -13.3361 -2.75926 -33.5519 -28.5365 2.10115 -30.3724 -6.1193 
25.6515 101.014 23.5403 -139.862 -83.1616 -140.438 -174.308 -1.65783 88.7244 -13.4246 -0.508391 -0.349066 71.1291 6.02696 -2.30661 15.1394 -10.8397 7.09582 173.122 -2.2401 88.6488 -11.7579 -8.60945 -0.191865 67.1146 -4.7552 1.47411 24.1935 0.683199 4.92291 0.285389 7.48559 -90.0931 11.9034 0.523669 -0.242032 0.2325 0.512506 -0.264851 -22.3035 0.572194 -0.0734493 -2.29083 0.572193 -0.0734572 91.767 -26.6524 -104.41 52.8421 2.70696 -7.46422 -5.73333 -47.7888 -5.72497 -15.5644 1.63369 -17.7076 -87.2915 -47.6496 82.3806 -24.0476 -2.36189 -16.6364 -14.1905 27.1651 -0.0223424 7.20109 -0.586721 -13.0317 -2.4976 -33.587 -28.1184 1.21987 -30.3839 -7.00582 
25.6441 101.026 23.7025 -143.997 -83.3228 -144.509 -174.403 -1.91084 88.7386 -13.3576 0.0892172 -0.178504 71.0568 6.10069 -2.0944 15.2854 -11.0408 7.55942 173.015 -2.73667 88.7064 -11.6062 -8.08051 -0.0901539 67.5163 -5.02594 1.34914 23.4993 1.00378 4.81371 0.25658 7.50597 -90.1102 11.8625 0.458386 -0.268746 0.191631 0.446119 -0.288667 -22.3441 0.517959 -0.118561 -2.33146 0.517964 -0.118557 91.8513 -26.49 -104.292 53.5672 2.5319 -7.02018 -5.59064 -46.0053 -5.63028 -18.3529 2.02941 -18.2107 -87.5594 -48.019 82.0343 -23.7514 -2.3778 -16.3263 -14.1958 27.5047 -0.0224109 6.48449 -0.531693 -13.3158 -2.52384 -33.5982 -28.1483 1.06417 -30.3944 -7.07474 
